<svg xmlns="http://www.w3.org/2000/svg" viewBox="0 0 1024 640"><path fill="#fefefe" d="M0 0h1024v640H0z"/><path fill="#16a085" d="M509.3 222.5c-48.2 0-87.3 39.1-87.3 87.3s39.1 87.3 87.3 87.3 87.3-39.1 87.3-87.3-39.1-87.3-87.3-87.3zm0 148.2c-33.6 0-60.9-27.3-60.9-60.9s27.3-60.9 60.9-60.9 60.9 27.3 60.9 60.9-27.3 60.9-60.9 60.9z"/><path fill="#16a085" d="M509.3 192.5c-64.8 0-117.3 52.5-117.3 117.3s52.5 117.3 117.3 117.3 117.3-52.5 117.3-117.3-52.5-117.3-117.3-117.3zm0 204.6c-48.2 0-87.3-39.1-87.3-87.3s39.1-87.3 87.3-87.3 87.3 39.1 87.3 87.3-39.1 87.3-87.3 87.3z"/><path fill="none" stroke="#16a085" stroke-width="30" stroke-miterlimit="10" d="M509.3 459.7c-87.2 0-165.2-44.1-213.4-118.3 47-75.1 125.1-120.3 213.4-120.3s166.4 45.2 213.4 120.3c-48.2 74.2-126.2 118.3-213.4 118.3z"/></svg>